<?xml version="1.0" standalone="no"?>
<!DOCTYPE svg PUBLIC "-//W3C//DTD SVG 20010904//EN"
 "http://www.w3.org/TR/2001/REC-SVG-20010904/DTD/svg10.dtd">
<svg version="1.0" xmlns="http://www.w3.org/2000/svg"
 width="700.000000pt" height="700.000000pt" viewBox="0 0 700.000000 700.000000"
 preserveAspectRatio="xMidYMid meet">
<metadata>
Created by potrace 1.14, written by Peter Selinger 2001-2017
</metadata>
<g transform="translate(0.000000,700.000000) scale(0.100000,-0.100000)"
fill="#000000" stroke="none">
<path d="M0 3500 l0 -3500 3500 0 3500 0 0 3500 0 3500 -3500 0 -3500 0 0
-3500z m6505 2636 c29 -12 35 -20 35 -45 0 -74 -84 -99 -363 -110 -190 -7
-206 -9 -261 -34 -86 -39 -169 -103 -274 -208 -324 -324 -604 -748 -1431
-2168 -288 -495 -400 -679 -477 -788 -24 -34 -40 -64 -35 -67 13 -9 342 106
505 176 308 131 518 272 733 490 120 121 206 223 313 371 44 59 82 107 87 107
39 -7 37 -19 -19 -102 -142 -207 -337 -427 -503 -566 -265 -222 -612 -391
-1107 -537 l-87 -26 -97 -142 c-135 -198 -393 -541 -506 -672 -255 -294 -553
-549 -833 -710 -264 -153 -479 -222 -758 -247 -237 -21 -436 15 -621 110 -72
36 -109 64 -176 132 -131 131 -170 223 -170 401 0 341 213 578 661 734 252 88
602 155 1383 265 381 54 629 94 758 121 l47 10 100 162 c54 89 195 328 311
532 556 968 847 1418 1171 1810 106 128 450 473 554 555 108 85 264 186 363
235 45 22 82 44 82 49 0 16 -506 -10 -785 -40 -525 -56 -1034 -167 -1360 -296
-500 -198 -807 -487 -877 -825 -38 -184 -15 -335 72 -468 45 -70 50 -97 18
-119 -29 -21 -54 -20 -105 3 -88 40 -179 150 -222 266 -64 172 -36 432 66 603
70 119 217 264 368 366 310 208 749 357 1375 465 378 66 708 96 1190 111 339
10 384 15 560 62 188 50 258 57 315 34z"/>
<path d="M3085 2529 c-82 -16 -321 -54 -530 -85 -839 -122 -1128 -186 -1373
-300 -249 -116 -393 -272 -449 -484 -23 -88 -23 -292 0 -377 48 -181 172 -297
372 -348 137 -36 401 -12 575 50 371 134 812 504 1171 981 170 224 417 595
396 593 -6 0 -79 -14 -162 -30z"/>
</g>
</svg>
